<svg width="30" height="30" viewBox="0 0 30 30" fill="none" xmlns="http://www.w3.org/2000/svg">
<circle cx="15" cy="15" r="15" fill="#D9D9D9"/>
<g clip-path="url(#clip0)">
<path d="M24.0909 14.0909H8.10379L8.82464 13.37C9.17967 13.015 9.17967 12.4394 8.82464 12.0844C8.46961 11.7294 7.89403 11.7294 7.539 12.0844L5.26627 14.3571C4.91124 14.7121 4.91124 15.2877 5.26627 15.6427L7.539 17.9155C7.71652 18.093 7.94918 18.1818 8.18179 18.1818C8.41445 18.1818 8.64712 18.093 8.82464 17.9155C9.17967 17.5604 9.17967 16.9849 8.82464 16.6298L8.10379 15.909H24.0909C24.5929 15.909 25 15.502 25 15C25 14.4979 24.5929 14.0909 24.0909 14.0909Z" fill="#656565"/>
</g>
<defs>
<clipPath id="clip0">
<rect width="20" height="20" fill="white" transform="translate(5 5)"/>
</clipPath>
</defs>
</svg>
