<svg width="43" height="38" viewBox="0 0 43 38" fill="none" xmlns="http://www.w3.org/2000/svg">
<circle cx="19" cy="19" r="19" fill="#F0F0F0"/>
<path fill-rule="evenodd" clip-rule="evenodd" d="M19.0123 12.5717L17.9253 11.4847C15.7774 9.33681 12.295 9.33681 10.1471 11.4847C7.99922 13.6326 7.99922 17.115 10.1471 19.2629L18.9859 28.1017L18.9877 28.0999L19.0141 28.1262L27.8529 19.2874C30.0008 17.1395 30.0008 13.6571 27.8529 11.5092C25.705 9.36134 22.2226 9.36134 20.0747 11.5092L19.0123 12.5717ZM18.9877 25.2715L23.924 20.3352L25.3748 18.9342L25.3762 18.9356L26.4387 17.8732C27.8055 16.5064 27.8055 14.2903 26.4387 12.9234C25.0719 11.5566 22.8558 11.5566 21.4889 12.9234L19.0134 15.399L19.0061 15.3918L19.005 15.3929L16.5111 12.8989C15.1442 11.5321 12.9282 11.5321 11.5613 12.8989C10.1945 14.2657 10.1945 16.4818 11.5613 17.8487L14.1007 20.3881L14.1025 20.3863L18.9877 25.2715Z" fill="#E01563"/>
<circle cx="36" cy="7" r="5.5" fill="#E01563" stroke="white" stroke-width="3"/>
</svg>
