<svg width="256" height="40" viewBox="0 0 256 40" fill="none" xmlns="http://www.w3.org/2000/svg">
<rect width="256" height="40" rx="4" fill="#FFDD00"/>
<path d="M81.344 25H79.52L74.688 19.624V25H73.2V13.8H74.688V18.856L79.36 13.8H81.184L76.24 19.24L81.344 25ZM88.19 17H89.582V25H88.19V23.624C87.4967 24.68 86.4887 25.208 85.166 25.208C84.046 25.208 83.0913 24.8027 82.302 23.992C81.5127 23.1707 81.118 22.1733 81.118 21C81.118 19.8267 81.5127 18.8347 82.302 18.024C83.0913 17.2027 84.046 16.792 85.166 16.792C86.4887 16.792 87.4967 17.32 88.19 18.376V17ZM85.342 23.864C86.1527 23.864 86.83 23.592 87.374 23.048C87.918 22.4933 88.19 21.8107 88.19 21C88.19 20.1893 87.918 19.512 87.374 18.968C86.83 18.4133 86.1527 18.136 85.342 18.136C84.542 18.136 83.87 18.4133 83.326 18.968C82.782 19.512 82.51 20.1893 82.51 21C82.51 21.8107 82.782 22.4933 83.326 23.048C83.87 23.592 84.542 23.864 85.342 23.864ZM97.403 17V18.344H94.683V25H93.291V18.344H90.555V17H97.403ZM99.0464 21.64C99.185 22.3547 99.5104 22.9093 100.022 23.304C100.545 23.6987 101.185 23.896 101.942 23.896C102.998 23.896 103.766 23.5067 104.246 22.728L105.43 23.4C104.652 24.6053 103.478 25.208 101.91 25.208C100.641 25.208 99.6064 24.8133 98.8064 24.024C98.017 23.224 97.6224 22.216 97.6224 21C97.6224 19.7947 98.0117 18.792 98.7904 17.992C99.569 17.192 100.577 16.792 101.814 16.792C102.988 16.792 103.942 17.208 104.678 18.04C105.425 18.8613 105.798 19.8533 105.798 21.016C105.798 21.2187 105.782 21.4267 105.75 21.64H99.0464ZM101.814 18.104C101.068 18.104 100.449 18.3173 99.9584 18.744C99.4677 19.16 99.1637 19.72 99.0464 20.424H104.39C104.273 19.6667 103.974 19.0907 103.494 18.696C103.014 18.3013 102.454 18.104 101.814 18.104ZM112.407 17V18.344H108.551V25H107.159V17H112.407ZM119.827 23.992C119.005 24.8027 118.008 25.208 116.835 25.208C115.661 25.208 114.664 24.8027 113.843 23.992C113.032 23.1813 112.627 22.184 112.627 21C112.627 19.816 113.032 18.8187 113.843 18.008C114.664 17.1973 115.661 16.792 116.835 16.792C118.008 16.792 119.005 17.1973 119.827 18.008C120.648 18.8187 121.059 19.816 121.059 21C121.059 22.184 120.648 23.1813 119.827 23.992ZM116.835 23.848C117.635 23.848 118.307 23.576 118.851 23.032C119.395 22.488 119.667 21.8107 119.667 21C119.667 20.1893 119.395 19.512 118.851 18.968C118.307 18.424 117.635 18.152 116.835 18.152C116.045 18.152 115.379 18.424 114.835 18.968C114.291 19.512 114.019 20.1893 114.019 21C114.019 21.8107 114.291 22.488 114.835 23.032C115.379 23.576 116.045 23.848 116.835 23.848ZM126.876 16.792C127.996 16.792 128.95 17.2027 129.74 18.024C130.529 18.8347 130.924 19.8267 130.924 21C130.924 22.1733 130.529 23.1707 129.74 23.992C128.95 24.8027 127.996 25.208 126.876 25.208C125.553 25.208 124.545 24.68 123.852 23.624V28.2H122.46V17H123.852V18.376C124.545 17.32 125.553 16.792 126.876 16.792ZM126.7 23.864C127.5 23.864 128.172 23.592 128.716 23.048C129.26 22.4933 129.532 21.8107 129.532 21C129.532 20.1893 129.26 19.512 128.716 18.968C128.172 18.4133 127.5 18.136 126.7 18.136C125.889 18.136 125.212 18.4133 124.668 18.968C124.124 19.512 123.852 20.1893 123.852 21C123.852 21.8107 124.124 22.4933 124.668 23.048C125.212 23.592 125.889 23.864 126.7 23.864ZM138.153 17H139.273V25H137.897V19.384L133.465 25H132.345V17H133.721V22.616L138.153 17ZM146.96 17H148.08V25H146.704V19.384L142.272 25H141.152V17H142.528V22.616L146.96 17ZM159.67 17V18.344H156.95V25H155.558V18.344H152.822V17H159.67ZM167.09 23.992C166.269 24.8027 165.271 25.208 164.098 25.208C162.925 25.208 161.927 24.8027 161.106 23.992C160.295 23.1813 159.89 22.184 159.89 21C159.89 19.816 160.295 18.8187 161.106 18.008C161.927 17.1973 162.925 16.792 164.098 16.792C165.271 16.792 166.269 17.1973 167.09 18.008C167.911 18.8187 168.322 19.816 168.322 21C168.322 22.184 167.911 23.1813 167.09 23.992ZM164.098 23.848C164.898 23.848 165.57 23.576 166.114 23.032C166.658 22.488 166.93 21.8107 166.93 21C166.93 20.1893 166.658 19.512 166.114 18.968C165.57 18.424 164.898 18.152 164.098 18.152C163.309 18.152 162.642 18.424 162.098 18.968C161.554 19.512 161.282 20.1893 161.282 21C161.282 21.8107 161.554 22.488 162.098 23.032C162.642 23.576 163.309 23.848 164.098 23.848ZM175.051 20.888C175.872 21.2293 176.283 21.848 176.283 22.744C176.283 23.4053 176.059 23.9493 175.611 24.376C175.174 24.792 174.544 25 173.723 25H169.723V17H173.403C174.203 17 174.822 17.2027 175.259 17.608C175.696 18.0027 175.915 18.5253 175.915 19.176C175.915 19.944 175.627 20.5147 175.051 20.888ZM173.339 18.248H171.083V20.344H173.339C174.15 20.344 174.555 19.9867 174.555 19.272C174.555 18.5893 174.15 18.248 173.339 18.248ZM173.643 23.736C174.048 23.736 174.358 23.64 174.571 23.448C174.795 23.256 174.907 22.984 174.907 22.632C174.907 22.3013 174.795 22.0453 174.571 21.864C174.358 21.672 174.048 21.576 173.643 21.576H171.083V23.736H173.643ZM184.169 17H185.561V25H184.169V23.624C183.476 24.68 182.468 25.208 181.145 25.208C180.025 25.208 179.071 24.8027 178.281 23.992C177.492 23.1707 177.097 22.1733 177.097 21C177.097 19.8267 177.492 18.8347 178.281 18.024C179.071 17.2027 180.025 16.792 181.145 16.792C182.468 16.792 183.476 17.32 184.169 18.376V17ZM181.321 23.864C182.132 23.864 182.809 23.592 183.353 23.048C183.897 22.4933 184.169 21.8107 184.169 21C184.169 20.1893 183.897 19.512 183.353 18.968C182.809 18.4133 182.132 18.136 181.321 18.136C180.521 18.136 179.849 18.4133 179.305 18.968C178.761 19.512 178.489 20.1893 178.489 21C178.489 21.8107 178.761 22.4933 179.305 23.048C179.849 23.592 180.521 23.864 181.321 23.864ZM191.846 16.792C192.966 16.792 193.921 17.2027 194.71 18.024C195.5 18.8347 195.894 19.8267 195.894 21C195.894 22.1733 195.5 23.1707 194.71 23.992C193.921 24.8027 192.966 25.208 191.846 25.208C190.524 25.208 189.516 24.68 188.822 23.624V28.2H187.43V17H188.822V18.376C189.516 17.32 190.524 16.792 191.846 16.792ZM191.67 23.864C192.47 23.864 193.142 23.592 193.686 23.048C194.23 22.4933 194.502 21.8107 194.502 21C194.502 20.1893 194.23 19.512 193.686 18.968C193.142 18.4133 192.47 18.136 191.67 18.136C190.86 18.136 190.182 18.4133 189.638 18.968C189.094 19.512 188.822 20.1893 188.822 21C188.822 21.8107 189.094 22.4933 189.638 23.048C190.182 23.592 190.86 23.864 191.67 23.864ZM204.067 23.992C203.246 24.8027 202.249 25.208 201.075 25.208C199.902 25.208 198.905 24.8027 198.083 23.992C197.273 23.1813 196.867 22.184 196.867 21C196.867 19.816 197.273 18.8187 198.083 18.008C198.905 17.1973 199.902 16.792 201.075 16.792C202.249 16.792 203.246 17.1973 204.067 18.008C204.889 18.8187 205.299 19.816 205.299 21C205.299 22.184 204.889 23.1813 204.067 23.992ZM201.075 23.848C201.875 23.848 202.547 23.576 203.091 23.032C203.635 22.488 203.907 21.8107 203.907 21C203.907 20.1893 203.635 19.512 203.091 18.968C202.547 18.424 201.875 18.152 201.075 18.152C200.286 18.152 199.619 18.424 199.075 18.968C198.531 19.512 198.259 20.1893 198.259 21C198.259 21.8107 198.531 22.488 199.075 23.032C199.619 23.576 200.286 23.848 201.075 23.848ZM212.028 20.888C212.85 21.2293 213.26 21.848 213.26 22.744C213.26 23.4053 213.036 23.9493 212.588 24.376C212.151 24.792 211.522 25 210.7 25H206.7V17H210.38C211.18 17 211.799 17.2027 212.236 17.608C212.674 18.0027 212.892 18.5253 212.892 19.176C212.892 19.944 212.604 20.5147 212.028 20.888ZM210.316 18.248H208.06V20.344H210.316C211.127 20.344 211.532 19.9867 211.532 19.272C211.532 18.5893 211.127 18.248 210.316 18.248ZM210.62 23.736C211.026 23.736 211.335 23.64 211.548 23.448C211.772 23.256 211.884 22.984 211.884 22.632C211.884 22.3013 211.772 22.0453 211.548 21.864C211.335 21.672 211.026 21.576 210.62 21.576H208.06V23.736H210.62Z" fill="black"/>
<g clip-path="url(#clip0)">
<path d="M50.4782 10H42.6522C42.292 10 42 10.292 42 10.6522V18.4783C42 18.8384 42.292 19.1305 42.6522 19.1305H50.4783C50.8384 19.1305 51.1305 18.8385 51.1305 18.4783V10.6522C51.1304 10.292 50.8384 10 50.4782 10ZM49.8261 17.8261H43.3043V11.3043H49.8261V17.8261Z" fill="black"/>
<path d="M61.3478 10H53.5218C53.1616 10 52.8696 10.292 52.8696 10.6522V18.4783C52.8696 18.8384 53.1616 19.1305 53.5218 19.1305H61.3478C61.708 19.1305 62 18.8385 62 18.4783V10.6522C62 10.292 61.708 10 61.3478 10ZM60.6957 17.8261H54.1739V11.3043H60.6957V17.8261Z" fill="black"/>
<path d="M50.4782 20.8696H42.6522C42.292 20.8696 42 21.1616 42 21.5218V29.3479C42 29.7081 42.292 30.0001 42.6522 30.0001H50.4783C50.8384 30.0001 51.1305 29.7081 51.1305 29.3479V21.5218C51.1304 21.1616 50.8384 20.8696 50.4782 20.8696ZM49.8261 28.6957H43.3043V22.174H49.8261V28.6957Z" fill="black"/>
<path d="M61.3478 20.8696H53.5218C53.1616 20.8696 52.8696 21.1616 52.8696 21.5218V29.3479C52.8696 29.7081 53.1616 30.0001 53.5218 30.0001H61.3478C61.708 30.0001 62 29.7081 62 29.3479V21.5218C62 21.1616 61.708 20.8696 61.3478 20.8696ZM60.6957 28.6957H54.1739V22.174H60.6957V28.6957Z" fill="black"/>
</g>
<defs>
<clipPath id="clip0">
<rect width="20" height="20" fill="white" transform="translate(42 10)"/>
</clipPath>
</defs>
</svg>
